HIERARCHY
ROOT RootJoint
{
    OFFSET   0.000000   0.000000   0.000000
    CHANNELS 6 Xposition Yposition Zposition Xrotation Yrotation Zrotation
    JOINT pelvis_lowerback
    {
        OFFSET   0.000000   0.093605   0.000000
        CHANNELS 3 Xrotation Yrotation Zrotation
        JOINT lowerback_torso
        {
            OFFSET   0.000000   0.100000   0.000000
            CHANNELS 3 Xrotation Yrotation Zrotation
            JOINT torso_head
            {
                OFFSET   0.000000   0.282350   0.000000
                CHANNELS 3 Xrotation Yrotation Zrotation
                End Site
                {
                    OFFSET   0.000000   0.192650   0.000000
                }
            }
            JOINT rTorso_Clavicle
            {
                OFFSET  -0.001000   0.157500   0.000000
                CHANNELS 3 Xrotation Yrotation Zrotation
                JOINT rShoulder
                {
                    OFFSET  -0.117647   0.000000   0.000000
                    CHANNELS 3 Xrotation Yrotation Zrotation
                    JOINT rElbow
                    {
                        OFFSET  -0.245000   0.000000   0.000000
                        CHANNELS 3 Xrotation Yrotation Zrotation
                        JOINT rWrist
                        {
                            OFFSET  -0.240000   0.000000   0.000000
                            CHANNELS 3 Xrotation Yrotation Zrotation
                            End Site
                            {
                                OFFSET  -0.116353  -0.002500   0.000000
                            }
                        }
                    }
                }
            }
            JOINT lTorso_Clavicle
            {
                OFFSET   0.001000   0.157500   0.000000
                CHANNELS 3 Xrotation Yrotation Zrotation
                JOINT lShoulder
                {
                    OFFSET   0.117647   0.000000   0.000000
                    CHANNELS 3 Xrotation Yrotation Zrotation
                    JOINT lElbow
                    {
                        OFFSET   0.245000   0.000000   0.000000
                        CHANNELS 3 Xrotation Yrotation Zrotation
                        JOINT lWrist
                        {
                            OFFSET   0.240000   0.000000   0.000000
                            CHANNELS 3 Xrotation Yrotation Zrotation
                            End Site
                            {
                                OFFSET   0.116353  -0.002500   0.000000
                            }
                        }
                    }
                }
            }
        }
    }
    JOINT rHip
    {
        OFFSET  -0.100000  -0.051395   0.000000
        CHANNELS 3 Xrotation Yrotation Zrotation
        JOINT rKnee
        {
            OFFSET   0.000000  -0.410000   0.000000
            CHANNELS 3 Xrotation Yrotation Zrotation
            JOINT rAnkle
            {
                OFFSET   0.000000  -0.390000   0.000000
                CHANNELS 3 Xrotation Yrotation Zrotation
                JOINT rToeJoint
                {
                    OFFSET   0.000000  -0.050000   0.130000
                    CHANNELS 3 Xrotation Yrotation Zrotation
                    End Site
                    {
                        OFFSET  -0.010000   0.002000   0.060000
                    }
                }
            }
        }
    }
    JOINT lHip
    {
        OFFSET   0.100000  -0.051395   0.000000
        CHANNELS 3 Xrotation Yrotation Zrotation
        JOINT lKnee
        {
            OFFSET   0.000000  -0.410000   0.000000
            CHANNELS 3 Xrotation Yrotation Zrotation
            JOINT lAnkle
            {
                OFFSET   0.000000  -0.390000   0.000000
                CHANNELS 3 Xrotation Yrotation Zrotation
                JOINT lToeJoint
                {
                    OFFSET   0.000000  -0.050000   0.130000
                    CHANNELS 3 Xrotation Yrotation Zrotation
                    End Site
                    {
                        OFFSET   0.010000   0.002000   0.060000
                    }
                }
            }
        }
    }
}
MOTION
Frames: 5
Frame Time:   0.008333
 -2.267140   0.908015   4.024609  -2.224224   4.401412   1.860443  11.880919   0.845995   0.061740  -4.436383  -0.337121   0.913043  -2.209726   0.091778  -0.485751  -3.958075 -11.246340   5.402653 -21.442448 -12.979764  19.188561  -0.011468  24.393981   0.004524  -0.366708  -0.115363 -18.336206  -2.114468  12.577673  -3.390506 -22.599607  14.486323 -20.567759  -0.014501 -21.999585  -0.016690  -3.632572  -0.557056  22.380758 -11.259095  -3.794005  -2.983673  41.992562  -0.004683  -0.004230  -3.566178  -3.260382   1.863427 -37.979602  -0.000766  -0.001467 -22.760069  -0.502719   8.536034 100.060628  -0.024971   0.020725  -3.437121   1.038223  -4.058547  -4.109778  -0.000846   0.000515
 -2.266190   0.915541   4.026199  -1.902190   4.650643   2.198116  11.522617   0.764650  -0.253327  -4.439260  -0.481522   0.801435  -2.154123  -0.008897  -0.555179  -3.842061 -11.181079   5.535274 -21.212548 -12.983137  19.642831  -0.012275  23.801502   0.005508  -0.337802   0.036162 -18.244515  -1.858503  12.475247  -3.439305 -22.097391  14.274180 -20.995647  -0.014293 -21.487434  -0.016930  -3.539217  -0.494154  22.178880 -10.965802  -3.716290  -3.399507  40.306107  -0.006922  -0.006041  -0.660604  -3.256870   2.340487 -40.754120   0.004067  -0.000989 -22.926112  -0.315529   7.880796  96.669219  -0.027053   0.022958  -3.108892   1.093196  -4.116084  -4.027551  -0.000421   0.000148
 -2.265109   0.923389   4.027760  -1.470812   4.924870   2.533509  11.094446   0.659691  -0.564623  -4.484775  -0.644733   0.680590  -2.109132  -0.105275  -0.625000  -3.717765 -11.155201   5.617085 -20.990114 -13.006398  20.046462  -0.012072  23.234735   0.005971  -0.331490   0.102945 -18.122972  -1.613697  12.388260  -3.440802 -21.629617  14.071521 -21.380779  -0.013579 -21.008207  -0.016682  -3.455781  -0.413215  21.956532 -10.732203  -3.692741  -3.797828  38.513648  -0.008189  -0.007746   2.511019  -3.368052   2.504993 -43.823801   0.000012  -0.002527 -22.993106  -0.121304   7.196723  92.874833  -0.030013   0.025374  -2.810960   1.142635  -4.169983  -3.911148   0.000035  -0.000286
 -2.263901   0.931256   4.029108  -0.969361   5.139267   2.856058  10.668259   0.568293  -0.869359  -4.548287  -0.798822   0.554849  -2.077252  -0.194532  -0.691988  -3.599743 -11.141475   5.651130 -20.786862 -13.026090  20.397083  -0.011136  22.706001   0.006186  -0.332885   0.146395 -18.033779  -1.383756  12.313470  -3.403558 -21.199431  13.875359 -21.716727  -0.012521 -20.563154  -0.016282  -3.376748  -0.335917  21.763432 -10.597498  -3.741165  -4.201323  36.659558  -0.008122  -0.007450   5.789745  -3.559646   2.759530 -46.732509  -0.003829   0.002374 -22.991494   0.093760   6.532326  88.963315  -0.031698   0.027103  -2.536317   1.187444  -4.221287  -3.797440   0.000354  -0.000633
 -2.262695   0.939516   4.030137  -0.442924   5.337027   3.052902  10.300402   0.478140  -1.079371  -4.607914  -0.950479   0.470662  -2.052297  -0.278123  -0.751858  -3.492109 -11.128682   5.672884 -20.602638 -13.039084  20.708872  -0.009993  22.212866   0.006409  -0.334711   0.188830 -17.986053  -1.172293  12.237606  -3.375016 -20.802389  13.685739 -22.029160  -0.011455 -20.150534  -0.015901  -3.295374  -0.277100  21.602849 -10.562643  -3.770208  -4.515475  34.961053  -0.008445  -0.007146   8.710850  -3.613263   3.282307 -46.386111  -0.003371   0.001129 -22.963033   0.262508   5.987395  85.159024  -0.032931   0.027752  -2.283297   1.230074  -4.268406  -3.687460   0.000590  -0.000884
